# xmcd CD database file
#
# Track frame offsets:
#	150
#	19034
#	40511
#	57988
#	78154
#	95005
#	114734
#	131710
#	150619
#	168540
#	187407
#	204673
#	221649
#	241846
#	257081
#
# Disc length: 3611 seconds
#
# Revision: 0
# Processed by: cddbd v1.4PL0 Copyright (c) Steve Scherf et al.
# Submitted via: CDex 1.51
#
DISCID=d30e190f
DTITLE=Woodleg Odds - Norwegien Wood
DYEAR=2003
DGENRE=Blues
TTITLE0=The Old Man Blues
TTITLE1=Sarting Over
TTITLE2=The Right Track
TTITLE3=Who Turned You Loose
TTITLE4=Green Eyed Woman
TTITLE5=Times Are Changin'
TTITLE6=Strange Behaviour
TTITLE7=You Came Right on Time
TTITLE8=Don't Let It Go
TTITLE9=I Got Blues
TTITLE10=They Don't Feed You With Lies
TTITLE11=You Done me Wrong
TTITLE12=First Mistery
TTITLE13=Ravin' Blues
TTITLE14=I Give You All You Need
EXTD=YEAR: 2003
EXTT0=
EXTT1=
EXTT2=
EXTT3=
EXTT4=
EXTT5=
EXTT6=
EXTT7=
EXTT8=
EXTT9=
EXTT10=
EXTT11=
EXTT12=
EXTT13=
EXTT14=
PLAYORDER=
